<svg width="30" height="30" xmlns="http://www.w3.org/2000/svg">

 <g>
  <title>background</title>
  <rect fill="none" id="canvas_background" height="402" width="582" y="-1" x="-1"/>
 </g>
 <g>
  <title fill="#ffffff">Layer 1</title>
  <path fill="#ffffff" id="svg_1" d="m4,3.137363l4.868,0c0.703,0 1.354,0.369 1.715,0.971l2.417,4.029l-11,0l0,-3c0,-1.105 0.895,-2 2,-2z"/>
  <path fill="#ffffff" id="svg_2" d="m26,6.304944l-24,0l0,18c0,1.105 0.895,2 2,2l2,0l0,-0.5c0,-0.828 0.672,-1.5 1.5,-1.5s1.5,0.672 1.5,1.5l0,0.5l12,0l0,-0.5c0,-0.828 0.672,-1.5 1.5,-1.5s1.5,0.672 1.5,1.5l0,0.5l2,0c1.105,0 2,-0.895 2,-2l0,-16c0,-1.105 -0.895,-2 -2,-2zm-20,14c0.55,-2.157 2.376,-1.561 2.75,-2.778l0,-0.903c-0.188,-0.1 -0.724,-0.792 -0.78,-1.332c-0.147,-0.012 -0.379,-0.159 -0.447,-0.738c-0.037,-0.311 0.109,-0.486 0.198,-0.541c0,0 -0.22,-0.501 -0.22,-1c-0.001,-1.48 0.732,-2.708 2.499,-2.708c0.954,0 1.25,0.677 1.25,0.677c0.853,0 1.25,0.935 1.25,2.031c0,0.547 -0.22,1 -0.22,1c0.088,0.055 0.234,0.23 0.198,0.541c-0.068,0.579 -0.3,0.726 -0.447,0.738c-0.056,0.54 -0.592,1.232 -0.78,1.332l0,0.903c0.374,1.217 2.2,0.621 2.75,2.778l-8.001,0zm17,-1l-6,0c-0.552,0 -1,-0.448 -1,-1c0,-0.552 0.448,-1 1,-1l6,0c0.552,0 1,0.448 1,1c0,0.552 -0.448,1 -1,1zm0,-4l-6,0c-0.552,0 -1,-0.448 -1,-1c0,-0.552 0.448,-1 1,-1l6,0c0.552,0 1,0.448 1,1c0,0.552 -0.448,1 -1,1z"/>
 </g>
</svg>