<svg width="512" height="512" xmlns="http://www.w3.org/2000/svg">

 <g>
  <title>background</title>
  <rect fill="none" id="canvas_background" height="402" width="582" y="-1" x="-1"/>
 </g>
 <g>
  <title fill="#ffffff">Layer 1</title>
  <path fill="#ffffff" id="svg_4" d="m124.6,6l-65.6,0l-32.7,57.3l32.7,57.2l65.5,0l32.7,-57.3l-32.6,-57.2zm-23.1,72.5l-3.1,-9l-13.2,0l-3.1,9l-4.8,0l12.6,-35l4.1,0l12.4,35l-4.9,0z"/>
  <polygon fill="#ffffff" id="svg_5" points="91.8,50.5 86.6,65.5 97.1,65.5 92,50.5    "/>
  <path fill="#ffffff" id="svg_6" d="m453,391.5l-65.5,0l-32.7,57.3l32.7,57.3l65.5,0l32.7,-57.3l-32.7,-57.3zm-38.7,68c1.5,2.1 3.6,3.1 6.1,3.1c2.6,0 4.5,-0.7 5.9,-2.1c1.4,-1.4 2.1,-3.3 2.1,-5.7l4.4,0l0,0.1c0.1,3.2 -1.1,5.9 -3.4,8c-2.3,2.1 -5.4,3.2 -9.1,3.2c-3.8,0 -7,-1.4 -9.4,-4.1c-2.4,-2.7 -3.6,-6.2 -3.6,-10.4l0,-6.1c0,-4.2 1.2,-7.7 3.6,-10.4c2.4,-2.7 5.6,-4.1 9.4,-4.1s6.9,1 9.2,3.1c2.3,2 3.4,4.8 3.3,8.1l0,0.1l-4.4,0c0,-2.4 -0.7,-4.3 -2.1,-5.7c-1.4,-1.4 -3.4,-2.1 -5.9,-2.1c-2.6,0 -4.6,1 -6.1,3.1c-1.5,2.1 -2.3,4.6 -2.3,7.7l0,6.1c0,3.5 0.8,6.1 2.3,8.1z"/>
  <path fill="#ffffff" id="svg_8" d="m424.2,187.7c1.1,-1 1.7,-2.3 1.7,-4.1c0,-1.9 -0.6,-3.3 -1.8,-4.2c-1.2,-0.9 -2.9,-1.4 -5.2,-1.4l-6.7,0l0,11.2l7.7,0c1.7,-0.1 3.2,-0.6 4.3,-1.5z"/>
  <path fill="#ffffff" id="svg_9" d="m421.4,192.8l-0.3,0l-8.9,0l0,12.7l9.1,0c2.2,0 3.8,-0.5 5,-1.6c1.2,-1.1 1.8,-2.6 1.8,-4.5c0,-1.9 -0.6,-3.5 -1.8,-4.7c-1.2,-1.2 -2.8,-1.8 -4.9,-1.9z"/>
  <path fill="#ffffff" id="svg_10" d="m453,134.5l-65.5,0l-32.7,57.3l32.7,57.3l65.5,0l32.7,-57.3l-32.7,-57.3zm-23.2,72.2c-2.1,1.7 -4.9,2.5 -8.5,2.5l-13.9,0l0,-35l11.4,0c3.7,0 6.5,0.8 8.6,2.4c2.1,1.6 3.1,3.9 3.1,7.1c0,1.5 -0.5,2.9 -1.4,4.1c-0.9,1.2 -2.2,2.1 -3.7,2.7c2.3,0.3 4.1,1.3 5.4,3s2,3.6 2,5.9c0.1,3.2 -0.9,5.6 -3,7.3z"/>
  <path fill="#ffffff" id="svg_12" d="m89.7,306.5l-6.3,0l0,27.5l6.3,0c3.2,0 5.8,-1.1 7.7,-3.2c1.9,-2.1 2.8,-4.9 2.8,-8.2l0,-4.8c0,-3.3 -0.9,-6 -2.8,-8.1c-1.9,-2.2 -4.4,-3.2 -7.7,-3.2z"/>
  <path fill="#ffffff" id="svg_13" d="m124.6,263l-65.6,0l-32.7,57.3l32.7,57.2l65.5,0l32.7,-57.3l-32.6,-57.2zm-19.7,59.7c0,4.5 -1.4,8.1 -4.2,10.9c-2.8,2.8 -6.5,4.2 -11,4.2l-11,0l0,-35l11,0c4.6,0 8.2,1.4 11,4.2c2.8,2.8 4.2,6.4 4.2,10.9l0,4.8z"/>
  <polygon fill="#ffffff" id="svg_14" points="446.1,14.5 140.9,14.5 168.8,63.3 140.9,112 446.1,112 485.7,63.3  "/>
  <polygon fill="#ffffff" id="svg_15" points="343.2,191.8 371.1,143 65.9,143 26.3,191.8 65.9,240.5 371.1,240.5  "/>
  <polygon fill="#ffffff" id="svg_16" points="446.1,271.5 140.9,271.5 168.8,320.2 140.9,369 446.1,369 485.7,320.2  "/>
  <polygon fill="#ffffff" id="svg_17" points="343.2,448.7 371.1,400 65.9,400 26.3,448.7 65.9,497.5 371.1,497.5  "/>
 </g>
</svg>