<svg width="512" height="512" xmlns="http://www.w3.org/2000/svg">

 <g>
  <title>background</title>
  <rect fill="none" id="canvas_background" height="402" width="582" y="-1" x="-1"/>
 </g>
 <g>
  <title fill="#ffffff">Layer 1</title>
  <path fill="#ffffff" id="svg_8" d="m455,463l-201,0c-4.418,0 -8,-3.582 -8,-8s3.582,-8 8,-8l193,0l0,-382l-193,0c-4.418,0 -8,-3.582 -8,-8s3.582,-8 8,-8l201,0c4.418,0 8,3.582 8,8l0,398c0,4.418 -3.582,8 -8,8z"/>
  <path fill="#ffffff" id="svg_9" d="m336.5,232.5c-10.215,0 -18.904,6.52 -22.143,15.624c-0.442,-0.076 -0.893,-0.124 -1.357,-0.124l-236.687,0l68.344,-68.343c3.125,-3.124 3.125,-8.189 0,-11.313c-3.123,-3.124 -8.188,-3.125 -11.313,0l-82,81.999c-1.02,1.02 -1.736,2.287 -2.09,3.661c-0.7,2.714 0.07,5.634 2.09,7.654l82,82c1.562,1.562 3.609,2.343 5.657,2.343c2.047,0 4.095,-0.781 5.657,-2.343c3.125,-3.125 3.125,-8.189 0,-11.314l-68.344,-68.344l236.686,0c0.464,0 0.915,-0.048 1.357,-0.124c3.238,9.104 11.928,15.624 22.143,15.624c12.979,0 23.5,-10.521 23.5,-23.5s-10.521,-23.5 -23.5,-23.5zm0,31c-4.136,0 -7.5,-3.364 -7.5,-7.5s3.364,-7.5 7.5,-7.5s7.5,3.364 7.5,7.5s-3.364,7.5 -7.5,7.5z"/>
 </g>
</svg>