<svg width="512" height="512" xmlns="http://www.w3.org/2000/svg">
 <defs>
  <filter id="svg_5_blur">
   <feGaussianBlur stdDeviation="0.3" in="SourceGraphic"/>
  </filter>
 </defs>
 <g>
  <title>background</title>
  <rect fill="none" id="canvas_background" height="402" width="582" y="-1" x="-1"/>
 </g>
 <g>
  <title fill="#ffffff">Layer 1</title>
  <path stroke="null" id="svg_2" fill="#ffffff" d="m255.999995,290.632808c-40.934113,0 -74.237652,-33.303538 -74.237652,-74.237652s33.303538,-74.237652 74.237652,-74.237652s74.237652,33.303538 74.237652,74.237652s-33.303538,74.237652 -74.237652,74.237652zm0,-133.428095c-32.661714,0 -59.190443,26.528729 -59.190443,59.190443s26.528729,59.190443 59.190443,59.190443s59.190443,-26.528729 59.190443,-59.190443s-26.528729,-59.190443 -59.190443,-59.190443z"/>
  <path stroke="null" id="svg_3" fill="#ffffff" d="m407.155815,449.36545c-4.998311,0 -9.048667,-4.050356 -9.048667,-9.048667c0,-78.3356 -63.685378,-142.020979 -142.020979,-142.020979s-142.107156,63.5992 -142.107156,141.934801c0,4.998311 -4.050356,9.048667 -9.048667,9.048667s-9.134844,-4.050356 -9.134844,-9.048667c0,-88.332223 71.872267,-160.20449 160.20449,-160.20449s160.20449,71.872267 160.20449,160.20449c0,4.998311 -4.050356,9.134844 -9.048667,9.134844z"/>
  <path stroke="null" filter="url(#svg_5_blur)" id="svg_4" fill="#ffffff" d="m472.187242,127.212537l-128.000232,0c-4.535133,0 -8.210155,-4.7 -8.210155,-10.5s3.675022,-10.5 8.210155,-10.5l128.000232,0c4.535133,0 8.210155,4.7 8.210155,10.5s-3.675022,10.5 -8.210155,10.5z"/>
  <path stroke="null" filter="url(#svg_5_blur)" id="svg_5" fill="#ffffff" d="m408.831606,186.789402c-5.8,0 -10.5,-3.56899 -10.5,-7.973276l0,-124.307172c0,-4.404286 4.7,-7.973276 10.5,-7.973276c5.8,0 10.5,3.56899 10.5,7.973276l0,124.307172c0.1,4.404286 -4.7,7.973276 -10.5,7.973276z"/>
 </g>
</svg>