<svg width="512" height="512" xmlns="http://www.w3.org/2000/svg">

 <g>
  <title>background</title>
  <rect fill="none" id="canvas_background" height="402" width="582" y="-1" x="-1"/>
 </g>
 <g>
  <title fill="#ffffff">Layer 1</title>
  <path fill="#ffffff" id="svg_8" d="m455,463l-201,0c-4.418,0 -8,-3.582 -8,-8s3.582,-8 8,-8l193,0l0,-382l-193,0c-4.418,0 -8,-3.582 -8,-8s3.582,-8 8,-8l201,0c4.418,0 8,3.582 8,8l0,398c0,4.418 -3.582,8 -8,8z"/>
  <path fill="#ffffff" id="svg_9" d="m367.747,254.003c-0.354,-1.374 -1.07,-2.641 -2.09,-3.661l-82,-81.999c-3.125,-3.124 -8.189,-3.124 -11.314,0c-3.124,3.124 -3.124,8.189 0,11.313l68.345,68.344l-236.688,0c-0.463,0 -0.915,0.048 -1.357,0.124c-3.239,-9.104 -11.928,-15.624 -22.143,-15.624c-12.979,0 -23.5,10.521 -23.5,23.5s10.521,23.5 23.5,23.5c10.215,0 18.904,-6.52 22.143,-15.624c0.442,0.076 0.894,0.124 1.357,0.124l236.686,0l-68.343,68.343c-3.124,3.125 -3.124,8.189 0,11.314c1.563,1.562 3.609,2.343 5.657,2.343s4.095,-0.781 5.657,-2.343l82,-82c2.021,-2.02 2.79,-4.94 2.09,-7.654zm-287.247,9.497c-4.136,0 -7.5,-3.364 -7.5,-7.5s3.364,-7.5 7.5,-7.5s7.5,3.364 7.5,7.5s-3.364,7.5 -7.5,7.5z"/>
 </g>
</svg>